<?xml version="1.0" encoding="UTF-8" standalone="no"?>
<svg
   xmlns:dc="http://purl.org/dc/elements/1.1/"
   xmlns:cc="http://creativecommons.org/ns#"
   xmlns:rdf="http://www.w3.org/1999/02/22-rdf-syntax-ns#"
   xmlns:svg="http://www.w3.org/2000/svg"
   xmlns="http://www.w3.org/2000/svg"
   id="svg4"
   version="1.1"
   viewBox="0 0 512 512">
  <metadata
     id="metadata10">
    <rdf:RDF>
      <cc:Work
         rdf:about="">
        <dc:format>image/svg+xml</dc:format>
        <dc:type
           rdf:resource="http://purl.org/dc/dcmitype/StillImage" />
        <dc:title></dc:title>
      </cc:Work>
    </rdf:RDF>
  </metadata>
  <defs
     id="defs8" />
  <path
     d="m 249.85309,264.00402 v -16 c 0,-13.255 -10.745,-24 -24,-24 h -21.55932 v -48 c 0,-21.367 -25.899,-32.042 -40.971,-16.971 l -80,80 c -9.372,9.373 -9.372,24.569 0,33.941 l 80,80 c 15.015,15.012 40.971,4.486 40.971,-16.97 v -48 h 21.55932 c 13.255,0 24,-10.745 24,-24 z"
     id="path4520" />
  <path
     d="m 64,393.85936 c 0,13.255 -10.745,24 -24,24 H 24 c -13.255,0 -24,-10.745 -24,-24 V 272.03894 118.14063 c 0,-13.255 10.745,-23.999995 24,-23.999995 h 16 c 13.255,0 24,10.744995 24,23.999995 v 153.89831 z"
     id="path4528" />
  <path
     id="path4545"
     d="m 511.99994,393.85936 c 0,13.255 -10.745,24 -24,24 h -16 c -13.255,0 -24,-10.745 -24,-24 V 272.03894 118.14063 c 0,-13.255 10.745,-23.999995 24,-23.999995 h 16 c 13.255,0 24,10.744995 24,23.999995 v 153.89831 z" />
  <path
     id="path4547"
     d="m 262.14685,264.00402 v -16 c 0,-13.255 10.745,-24 24,-24 h 21.55932 v -48 c 0,-21.367 25.899,-32.042 40.971,-16.971 l 80,80 c 9.372,9.373 9.372,24.569 0,33.941 l -80,80 c -15.015,15.012 -40.971,4.486 -40.971,-16.97 v -48 h -21.55932 c -13.255,0 -24,-10.745 -24,-24 z" />
</svg>
